# xmcd
#
# Track frame offsets:
#      150
#      12411
#      29896
#      46833
#      60461
#      74396
#      90168
#      105921
#      123251
#      144623
#      163198
#      175661
#      189861
#      204156
#      216118
# 
# Disc length: 3066 seconds
#
# Revision: 1
# Processed by: cddbd v1.4PL0 Copyright (c) Steve Scherf et al.
#
# Submitted via: FreeRIP 1.20
#
DISCID=c30bf80f
DTITLE=Kenny Rogers - Always and Forever    Disk 2
DYEAR=1999
DGENRE=Country
TTITLE0=It Had To Be You
TTITLE1=I Swear
TTITLE2=Stardust
TTITLE3=I Will Always Love You
TTITLE4=You Send Me
TTITLE5=Through The Years
TTITLE6=Unchained Melody
TTITLE7=Lady
TTITLE8=Always And Forever
TTITLE9=My Funny Valentine
TTITLE10=Somewhere My Love
TTITLE11=You Are So Beautiful
TTITLE12=You LightUp My Life
TTITLE13=Love Is A Many Splendored Thing
TTITLE14=Love Me Tender
EXTD=
EXTT0=
EXTT1=
EXTT2=
EXTT3=
EXTT4=
EXTT5=
EXTT6=
EXTT7=
EXTT8=
EXTT9=
EXTT10=
EXTT11=
EXTT12=
EXTT13=
EXTT14=
PLAYORDER=
